<svg xmlns="http://www.w3.org/2000/svg" width="600" height="400" viewBox="0 0 600 400">
  <defs>
    <linearGradient id="bg" x1="0%" y1="0%" x2="100%" y2="100%">
      <stop offset="0%" style="stop-color:#1e293b"/>
      <stop offset="100%" style="stop-color:#0f172a"/>
    </linearGradient>
    <linearGradient id="blue" x1="0%" y1="0%" x2="100%" y2="100%">
      <stop offset="0%" style="stop-color:#2563eb"/>
      <stop offset="100%" style="stop-color:#3b82f6"/>
    </linearGradient>
  </defs>
  <rect width="600" height="400" rx="16" fill="url(#bg)"/>
  <!-- MacBook-like bezel -->
  <rect x="30" y="20" width="540" height="310" rx="10" fill="#1e293b" stroke="#334155" stroke-width="1"/>
  <rect x="40" y="30" width="520" height="290" rx="6" fill="#0f172a"/>
  <!-- Browser top bar -->
  <rect x="40" y="30" width="520" height="40" rx="6" fill="#1e293b"/>
  <circle cx="60" cy="50" r="5" fill="#ef4444"/>
  <circle cx="80" cy="50" r="5" fill="#f59e0b"/>
  <circle cx="100" cy="50" r="5" fill="#10b981"/>
  <rect x="120" y="42" width="200" height="16" rx="8" fill="#334155"/>
  <!-- Dashboard content -->
  <rect x="55" y="85" width="160" height="220" rx="8" fill="#1e293b"/>
  <rect x="65" y="95" width="140" height="12" rx="4" fill="#2563eb"/>
  <rect x="65" y="115" width="100" height="8" rx="4" fill="#334155"/>
  <rect x="65" y="130" width="120" height="8" rx="4" fill="#334155"/>
  <rect x="65" y="145" width="90" height="8" rx="4" fill="#334155"/>
  <rect x="65" y="165" width="140" height="12" rx="4" fill="#10b981"/>
  <rect x="65" y="185" width="100" height="8" rx="4" fill="#334155"/>
  <rect x="65" y="200" width="120" height="8" rx="4" fill="#334155"/>
  <rect x="65" y="220" width="140" height="12" rx="4" fill="#f59e0b"/>
  <rect x="65" y="240" width="100" height="8" rx="4" fill="#334155"/>
  <rect x="65" y="255" width="120" height="8" rx="4" fill="#334155"/>
  <rect x="65" y="275" width="140" height="12" rx="4" fill="#2563eb"/>
  <!-- Right side charts -->
  <rect x="230" y="85" width="315" height="100" rx="8" fill="#1e293b"/>
  <polyline points="250,160 280,140 310,150 340,120 370,130 400,100 430,115 460,90 490,105 520,80" fill="none" stroke="#2563eb" stroke-width="2"/>
  <polyline points="250,160 280,155 310,158 340,145 370,148 400,130 430,135 460,120 490,125 520,110" fill="none" stroke="#10b981" stroke-width="2" stroke-dasharray="4"/>
  <rect x="230" y="195" width="150" height="110" rx="8" fill="#1e293b"/>
  <rect x="240" y="205" width="60" height="60" rx="8" fill="#2563eb" opacity="0.2"/>
  <rect x="240" y="205" width="60" height="30" rx="8" fill="#2563eb"/>
  <text x="270" y="240" font-size="10" fill="#f8fafc" text-anchor="middle">75%</text>
  <rect x="310" y="205" width="60" height="60" rx="8" fill="#10b981" opacity="0.2"/>
  <rect x="310" y="205" width="60" height="45" rx="8" fill="#10b981"/>
  <text x="340" y="235" font-size="10" fill="#f8fafc" text-anchor="middle">90%</text>
  <rect x="395" y="195" width="150" height="110" rx="8" fill="#1e293b"/>
  <rect x="405" y="205" width="130" height="12" rx="4" fill="#2563eb"/>
  <rect x="405" y="225" width="100" height="8" rx="4" fill="#334155"/>
  <rect x="405" y="240" width="110" height="8" rx="4" fill="#334155"/>
  <rect x="405" y="260" width="130" height="12" rx="4" fill="#10b981"/>
  <rect x="405" y="280" width="100" height="8" rx="4" fill="#334155"/>
  <text x="300" y="345" font-size="14" fill="#64748b" text-anchor="middle" font-family="monospace">Net Code Dashboard</text>
</svg>