<svg xmlns="http://www.w3.org/2000/svg" width="600" height="400" viewBox="0 0 600 400"><rect width="600" height="400" fill="#0f172a"/><!-- Dashboard interface --><rect x="60" y="50" width="480" height="300" rx="12" fill="#1e293b"/><rect x="60" y="50" width="480" height="40" rx="12" fill="#1e293b"/><rect x="80" y="65" width="100" height="10" rx="4" fill="#2563eb"/><circle cx="510" cy="70" r="10" fill="#10b981"/><circle cx="535" cy="70" r="10" fill="#f59e0b"/><circle cx="60" y="90" width="480" height="2" fill="#334155"/><rect x="80" y="110" width="440" height="40" rx="6" fill="#0f172a"/><rect x="100" y="122" width="200" height="16" rx="4" fill="#334155"/><rect x="450" y="122" width="50" height="16" rx="4" fill="#10b981"/><rect x="80" y="160" width="440" height="40" rx="6" fill="#0f172a"/><rect x="100" y="172" width="180" height="16" rx="4" fill="#334155"/><rect x="450" y="172" width="50" height="16" rx="4" fill="#f59e0b"/><rect x="80" y="210" width="440" height="40" rx="6" fill="#0f172a"/><rect x="100" y="222" width="220" height="16" rx="4" fill="#334155"/><rect x="450" y="222" width="50" height="16" rx="4" fill="#3b82f6"/><rect x="80" y="260" width="440" height="40" rx="6" fill="#0f172a"/><rect x="100" y="272" width="160" height="16" rx="4" fill="#334155"/><rect x="450" y="272" width="50" height="16" rx="4" fill="#ef4444"/><rect x="80" y="310" width="440" height="20" rx="4" fill="#0f172a"/><rect x="350" y="315" width="150" height="10" rx="4" fill="#2563eb"/><text x="300" y="380" font-size="14" fill="#64748b" text-anchor="middle" font-family="sans-serif">Maintenance &amp; Support</text></svg>