<svg xmlns="http://www.w3.org/2000/svg" width="600" height="400" viewBox="0 0 600 400"><rect width="600" height="400" fill="#0f172a"/><!-- Server rack --><rect x="100" y="50" width="400" height="300" rx="12" fill="#1e293b" stroke="#334155" stroke-width="2"/><rect x="120" y="70" width="360" height="50" rx="6" fill="#0f172a"/><circle cx="145" cy="95" r="8" fill="#10b981"/><rect x="165" y="88" width="80" height="14" rx="4" fill="#2563eb"/><rect x="260" y="88" width="200" height="14" rx="4" fill="#334155"/><rect x="120" y="135" width="360" height="50" rx="6" fill="#0f172a"/><circle cx="145" cy="160" r="8" fill="#10b981"/><rect x="165" y="153" width="80" height="14" rx="4" fill="#f59e0b"/><rect x="260" y="153" width="200" height="14" rx="4" fill="#334155"/><rect x="120" y="200" width="360" height="50" rx="6" fill="#0f172a"/><circle cx="145" cy="225" r="8" fill="#10b981"/><rect x="165" y="218" width="80" height="14" rx="4" fill="#10b981"/><rect x="260" y="218" width="200" height="14" rx="4" fill="#334155"/><rect x="120" y="265" width="360" height="50" rx="6" fill="#0f172a"/><circle cx="145" cy="290" r="8" fill="#10b981"/><rect x="165" y="283" width="80" height="14" rx="4" fill="#3b82f6"/><rect x="260" y="283" width="200" height="14" rx="4" fill="#334155"/><text x="300" y="360" font-size="14" fill="#64748b" text-anchor="middle" font-family="sans-serif">Full-Stack Application</text></svg>