<svg xmlns="http://www.w3.org/2000/svg" width="600" height="400" viewBox="0 0 600 400"><rect width="600" height="400" fill="#0f172a"/><rect x="60" y="60" width="480" height="280" rx="12" fill="#1e293b"/><rect x="80" y="80" width="440" height="240" rx="8" fill="#0f172a"/><rect x="80" y="80" width="440" height="35" rx="8" fill="#1e293b"/><circle cx="98" cy="97" r="5" fill="#ef4444"/><circle cx="115" cy="97" r="5" fill="#f59e0b"/><circle cx="132" cy="97" r="5" fill="#10b981"/><rect x="160" y="90" width="120" height="14" rx="4" fill="#334155"/><rect x="100" y="130" width="400" height="14" rx="4" fill="#2563eb"/><rect x="100" y="160" width="350" height="10" rx="4" fill="#334155"/><rect x="100" y="180" width="380" height="10" rx="4" fill="#334155"/><rect x="100" y="200" width="300" height="10" rx="4" fill="#334155"/><rect x="100" y="230" width="400" height="14" rx="4" fill="#10b981"/><rect x="100" y="260" width="350" height="10" rx="4" fill="#334155"/><rect x="100" y="280" width="380" height="10" rx="4" fill="#334155"/><text x="300" y="340" font-size="14" fill="#64748b" text-anchor="middle" font-family="sans-serif">Business Website</text></svg>