<svg xmlns="http://www.w3.org/2000/svg" width="600" height="400" viewBox="0 0 600 400"><rect width="600" height="400" fill="#0f172a"/><!-- UML Diagram --><rect x="60" y="50" width="200" height="120" rx="8" fill="#1e293b" stroke="#2563eb" stroke-width="2"/><rect x="60" y="50" width="200" height="30" rx="8" fill="#2563eb"/><text x="160" y="70" font-size="12" fill="#fff" text-anchor="middle" font-family="sans-serif">User</text><rect x="80" y="90" width="80" height="8" rx="2" fill="#334155"/><rect x="80" y="105" width="100" height="8" rx="2" fill="#334155"/><rect x="80" y="120" width="60" height="8" rx="2" fill="#334155"/><rect x="80" y="140" width="100" height="8" rx="2" fill="#10b981"/><rect x="80" y="155" width="120" height="8" rx="2" fill="#10b981"/><!-- Arrow --><line x1="260" y1="110" x2="330" y2="110" stroke="#64748b" stroke-width="2"/><polygon points="330,105 340,110 330,115" fill="#64748b"/><rect x="340" y="50" width="200" height="120" rx="8" fill="#1e293b" stroke="#f59e0b" stroke-width="2"/><rect x="340" y="50" width="200" height="30" rx="8" fill="#f59e0b"/><text x="440" y="70" font-size="12" fill="#fff" text-anchor="middle" font-family="sans-serif">System</text><rect x="360" y="90" width="80" height="8" rx="2" fill="#334155"/><rect x="360" y="105" width="100" height="8" rx="2" fill="#334155"/><rect x="360" y="120" width="60" height="8" rx="2" fill="#334155"/><rect x="360" y="140" width="100" height="8" rx="2" fill="#10b981"/><rect x="360" y="155" width="120" height="8" rx="2" fill="#10b981"/><rect x="80" y="220" width="200" height="120" rx="8" fill="#1e293b" stroke="#10b981" stroke-width="2"/><rect x="80" y="220" width="200" height="30" rx="8" fill="#10b981"/><text x="180" y="240" font-size="12" fill="#fff" text-anchor="middle" font-family="sans-serif">Database</text><rect x="100" y="260" width="80" height="8" rx="2" fill="#334155"/><rect x="100" y="275" width="100" height="8" rx="2" fill="#334155"/><rect x="100" y="290" width="60" height="8" rx="2" fill="#334155"/><line x1="180" y1="220" x2="340" y2="170" stroke="#64748b" stroke-width="2" stroke-dasharray="5,5"/><text x="300" y="380" font-size="14" fill="#64748b" text-anchor="middle" font-family="sans-serif">UML Analysis &amp; Design</text></svg>