<svg xmlns="http://www.w3.org/2000/svg" width="600" height="400" viewBox="0 0 600 400"><rect width="600" height="400" fill="#0f172a"/><!-- Phone frame --><rect x="220" y="40" width="160" height="320" rx="24" fill="#1e293b" stroke="#334155" stroke-width="3"/><rect x="230" y="50" width="140" height="300" rx="16" fill="#0f172a"/><rect x="280" y="55" width="40" height="6" rx="3" fill="#334155"/><rect x="230" y="50" width="140" height="35" rx="16" fill="#2563eb"/><rect x="250" y="65" width="100" height="10" rx="4" fill="#fff" opacity="0.7"/><rect x="240" y="95" width="120" height="30" rx="6" fill="#1e293b"/><rect x="240" y="135" width="120" height="30" rx="6" fill="#1e293b"/><rect x="240" y="175" width="120" height="30" rx="6" fill="#1e293b"/><rect x="240" y="215" width="120" height="30" rx="6" fill="#2563eb"/><rect x="250" y="225" width="100" height="10" rx="4" fill="#fff" opacity="0.7"/><rect x="240" y="260" width="120" height="30" rx="6" fill="#1e293b"/><rect x="240" y="300" width="120" height="30" rx="6" fill="#1e293b"/><rect x="280" y="345" width="40" height="6" rx="3" fill="#334155"/><text x="300" y="380" font-size="14" fill="#64748b" text-anchor="middle" font-family="sans-serif">Mobile Application</text></svg>