<svg xmlns="http://www.w3.org/2000/svg" width="600" height="400" viewBox="0 0 600 400"><rect width="600" height="400" fill="#0f172a"/><rect x="60" y="60" width="480" height="280" rx="16" fill="#1e293b"/><rect x="40" y="80" width="520" height="240" rx="0" fill="#0f172a"/><rect x="40" y="80" width="520" height="40" rx="0" fill="#2563eb" opacity="0.8"/><rect x="60" y="93" width="80" height="14" rx="4" fill="#fff" opacity="0.8"/><rect x="500" y="93" width="40" height="14" rx="4" fill="#fff" opacity="0.5"/><rect x="60" y="140" width="480" height="60" rx="8" fill="#1e293b"/><rect x="80" y="155" width="100" height="30" rx="6" fill="#2563eb"/><rect x="200" y="155" width="320" height="12" rx="4" fill="#334155"/><rect x="200" y="173" width="280" height="12" rx="4" fill="#334155"/><rect x="60" y="215" width="480" height="60" rx="8" fill="#1e293b"/><rect x="80" y="230" width="100" height="30" rx="6" fill="#10b981"/><rect x="200" y="230" width="320" height="12" rx="4" fill="#334155"/><rect x="200" y="248" width="280" height="12" rx="4" fill="#334155"/><rect x="60" y="290" width="480" height="60" rx="8" fill="#1e293b"/><rect x="80" y="305" width="100" height="30" rx="6" fill="#f59e0b"/><rect x="200" y="305" width="320" height="12" rx="4" fill="#334155"/><rect x="200" y="323" width="280" height="12" rx="4" fill="#334155"/><text x="300" y="370" font-size="14" fill="#64748b" text-anchor="middle" font-family="sans-serif">Corporate Website</text></svg>